<?xml version="1.0" encoding="iso-8859-1"?>
<!-- Uploaded to: SVG Repo, www.svgrepo.com, Generator: SVG Repo Mixer Tools -->
<svg version="1.1" id="Layer_1" xmlns="http://www.w3.org/2000/svg" xmlns:xlink="http://www.w3.org/1999/xlink" 
	 viewBox="0 0 504 504" xml:space="preserve">
<path style="fill:#AEB1B4;" d="M502,439.4c0,8.8-7.2,16-16,16H22c-8.8,0-16-7.2-16-16v-280c0-8.8,7.2-16,16-16h464
	c8.8,0,16,7.2,16,16V439.4z"/>
<circle style="fill:#F4EFEF;" cx="252.8" cy="170.6" r="12"/>
<rect x="322" y="231.4" style="fill:#F4AEA8;" width="140" height="148"/>
<path d="M484,461.4H20c-11.2,0-20-8.8-20-20v-280c0-11.2,8.8-20,20-20h464c11.2,0,20,8.8,20,20v280C504,452.6,495.2,461.4,484,461.4
	z M20,149.4c-6.8,0-12,5.2-12,12v280c0,6.8,5.2,12,12,12h464c6.8,0,12-5.2,12-12v-280c0-6.8-5.2-12-12-12H20z"/>
<path d="M134,277.4H54c-2.4,0-4-1.6-4-4s1.6-4,4-4h80c2.4,0,4,1.6,4,4S136.4,277.4,134,277.4z"/>
<path d="M266,277.4H166c-2.4,0-4-1.6-4-4s1.6-4,4-4h100c2.4,0,4,1.6,4,4S268.4,277.4,266,277.4z"/>
<path d="M266,237.4H54c-2.4,0-4-1.6-4-4s1.6-4,4-4h212c2.4,0,4,1.6,4,4S268.4,237.4,266,237.4z"/>
<path d="M266,345.4H114c-2.4,0-4-1.6-4-4s1.6-4,4-4h152c2.4,0,4,1.6,4,4S268.4,345.4,266,345.4z"/>
<path d="M86,345.4H54c-2.4,0-4-1.6-4-4s1.6-4,4-4h32c2.4,0,4,1.6,4,4S88.4,345.4,86,345.4z"/>
<path d="M266,385.4H114c-2.4,0-4-1.6-4-4s1.6-4,4-4h152c2.4,0,4,1.6,4,4S268.4,385.4,266,385.4z"/>
<path d="M86,385.4H54c-2.4,0-4-1.6-4-4s1.6-4,4-4h32c2.4,0,4,1.6,4,4S88.4,385.4,86,385.4z"/>
<path d="M252.8,186.6c-8.8,0-16-7.2-16-16s7.2-16,16-16s16,7.2,16,16S262,186.6,252.8,186.6z M252.8,162.6c-4.4,0-8,3.6-8,8
	s3.6,8,8,8s8-3.6,8-8S257.6,162.6,252.8,162.6z"/>
<path d="M460,385.4H320c-2.4,0-4-1.6-4-4v-148c0-2.4,1.6-4,4-4h110c2.4,0,4,1.6,4,4s-1.6,4-4,4H324v140h132v-146c0-2.4,1.6-4,4-4
	s4,1.6,4,4v150C464,383.8,462.4,385.4,460,385.4z"/>
<path d="M252.8,174.6c-1.2,0-2-0.4-2.8-1.2l-124-124c-1.6-1.6-1.6-4,0-5.6s4-1.6,5.6,0l124,124c1.6,1.6,1.6,4,0,5.6
	C254.8,174.2,254,174.6,252.8,174.6z"/>
<path d="M280.8,146.2c-1.2,0-2-0.4-2.8-1.2c-1.6-1.6-1.6-4,0-5.6l95.6-95.6c1.6-1.6,4-1.6,5.6,0s1.6,4,0,5.6L283.6,145
	C283.2,145.8,282,146.2,280.8,146.2z"/>
</svg>