<?xml version="1.0" encoding="utf-8"?><!-- Uploaded to: SVG Repo, www.svgrepo.com, Generator: SVG Repo Mixer Tools -->
<svg fill="#000000" width="800px" height="800px" viewBox="0 0 24 24" id="id-card" data-name="Flat Line" xmlns="http://www.w3.org/2000/svg" class="icon flat-line"><path id="secondary" d="M18,5H6A1,1,0,0,0,5,6V20a1,1,0,0,0,1,1H18a1,1,0,0,0,1-1V6A1,1,0,0,0,18,5ZM15,17H9V16a3,3,0,0,1,3-3,2,2,0,1,1,2-2,2,2,0,0,1-2,2,3,3,0,0,1,3,3Z" style="fill: rgb(44, 169, 188); stroke-width: 2;"></path><path id="primary" d="M12,9a2,2,0,1,0,2,2A2,2,0,0,0,12,9Zm3,7a3,3,0,0,0-3-3h0a3,3,0,0,0-3,3v1h6ZM14.5,5h-2l1-2h2Zm-6-2h2l1,2h-2ZM6,5H18a1,1,0,0,1,1,1V20a1,1,0,0,1-1,1H6a1,1,0,0,1-1-1V6A1,1,0,0,1,6,5Z" style="fill: none; stroke: rgb(0, 0, 0); stroke-linecap: round; stroke-linejoin: round; stroke-width: 2;"></path></svg>